<svg width="51" height="32" viewBox="0 0 51 32" fill="none" xmlns="http://www.w3.org/2000/svg">
<g filter="url(#filter0_dii_4337_142)">
<rect x="1.5" width="48" height="30" rx="12" fill="url(#paint0_linear_4337_142)" shape-rendering="crispEdges"/>
<path d="M27.6114 19.3935L27.6115 19.3936C29.384 17.6114 29.4087 14.7096 27.6006 12.8995C27.4092 12.7082 27.2014 12.534 26.9795 12.3791L27.6114 19.3935ZM27.6114 19.3935L27.6073 19.398M27.6114 19.3935L27.6073 19.398M27.6073 19.398L27.6006 19.4049L25.5006 21.5049C23.707 23.2985 20.7885 23.2983 18.9952 21.5049L18.9952 21.5049M27.6073 19.398L18.9952 21.5049M18.9952 21.5049C17.2016 19.7116 17.2016 16.7928 18.9952 14.9995L18.9952 14.9995M18.9952 21.5049L18.9952 14.9995M18.9952 14.9995L20.1548 13.84C20.3713 13.6234 20.7407 13.7695 20.7517 14.0708L20.7517 14.0708M18.9952 14.9995L20.7517 14.0708M20.7517 14.0708C20.7725 14.6388 20.8744 15.2097 21.0625 15.7613L21.0625 15.7613M20.7517 14.0708L21.0625 15.7613M21.0625 15.7613C21.1066 15.8905 21.0746 16.0315 20.9802 16.1259L20.5712 16.5349C19.639 17.4671 19.6075 18.9873 20.5341 19.9322L20.6341 19.8341M21.0625 15.7613L20.6341 19.8341M20.6341 19.8341L20.5341 19.9322C21.4683 20.885 23.0035 20.8906 23.9449 19.9492C23.9449 19.9492 23.9449 19.9492 23.9449 19.9492L26.0449 17.8495L26.0449 17.8495M20.6341 19.8341L26.0449 17.8495M26.0449 17.8495C26.9846 16.9098 26.9806 15.3909 26.0449 14.4552L26.0448 14.4551M26.0449 17.8495L26.0448 14.4551M26.0448 14.4551C25.9212 14.3318 25.7973 14.2364 25.7007 14.17L25.7006 14.1699M26.0448 14.4551L25.7006 14.1699M25.7006 14.1699C25.6555 14.1389 25.6182 14.0978 25.5918 14.0499M25.7006 14.1699L25.5918 14.0499M32.0048 8.49511L32.0048 8.4951C30.2115 6.70173 27.293 6.70149 25.4994 8.4951L23.3994 10.5951L23.3927 10.602L23.3886 10.6065L23.3885 10.6064C21.6161 12.3886 21.5913 15.2904 23.3994 17.1005C23.5908 17.2918 23.7986 17.466 24.0205 17.6209L32.0048 8.49511ZM32.0048 8.49511C33.7984 10.2884 33.7984 13.2072 32.0048 15.0004L32.0048 15.0004L30.8452 16.16C30.6287 16.3765 30.2593 16.2305 30.2482 15.9291C30.2275 15.3611 30.1256 14.7902 29.9375 14.2387L29.9375 14.2387C29.8934 14.1094 29.9254 13.9685 30.0198 13.874L30.4288 13.4651C31.361 12.5329 31.3924 11.0126 30.4659 10.0677L30.3588 10.1727L30.4659 10.0677C29.5317 9.11501 27.9965 9.10935 27.0551 10.0507L24.9551 12.1504L24.9551 12.1504C24.0154 13.0901 24.0194 14.6091 24.9551 15.5448L24.9552 15.5449C25.0787 15.6682 25.2027 15.7635 25.2992 15.83L25.2994 15.8301C25.3445 15.8611 25.3817 15.9022 25.4081 15.9501C25.4346 15.998 25.4494 16.0515 25.4515 16.1062C25.4624 16.3971 25.3594 16.6961 25.1298 16.9258L25.227 17.023M32.0048 8.49511L25.227 17.023M25.227 17.023L25.1298 16.9258L24.4718 17.5837C24.3518 17.7038 24.1622 17.7198 24.0205 17.6209L25.227 17.023ZM25.5918 14.0499C25.5654 14.002 25.5506 13.9486 25.5485 13.8939M25.5918 14.0499L25.5485 13.8939M25.5485 13.8939C25.5376 13.6029 25.6405 13.3039 25.8702 13.0742L25.7641 12.9681L25.8702 13.0742L26.5281 12.4162C26.6482 12.2962 26.8378 12.2802 26.9795 12.379L25.5485 13.8939Z" fill="#D0EEFF" stroke="black" stroke-width="0.3"/>
<ellipse cx="40.7789" cy="3.68897" rx="4.17485" ry="2.25425" transform="rotate(22.6661 40.7789 3.68897)" fill="#BEE3FF"/>
</g>
<defs>
<filter id="filter0_dii_4337_142" x="0.5" y="0" width="50" height="32" filterUnits="userSpaceOnUse" color-interpolation-filters="sRGB">
<feFlood flood-opacity="0" result="BackgroundImageFix"/>
<feColorMatrix in="SourceAlpha" type="matrix" values="0 0 0 0 0 0 0 0 0 0 0 0 0 0 0 0 0 0 127 0" result="hardAlpha"/>
<feOffset dy="1"/>
<feGaussianBlur stdDeviation="0.5"/>
<feComposite in2="hardAlpha" operator="out"/>
<feColorMatrix type="matrix" values="0 0 0 0 0 0 0 0 0 0 0 0 0 0 0 0 0 0 0.25 0"/>
<feBlend mode="normal" in2="BackgroundImageFix" result="effect1_dropShadow_4337_142"/>
<feBlend mode="normal" in="SourceGraphic" in2="effect1_dropShadow_4337_142" result="shape"/>
<feColorMatrix in="SourceAlpha" type="matrix" values="0 0 0 0 0 0 0 0 0 0 0 0 0 0 0 0 0 0 127 0" result="hardAlpha"/>
<feOffset dy="-2"/>
<feComposite in2="hardAlpha" operator="arithmetic" k2="-1" k3="1"/>
<feColorMatrix type="matrix" values="0 0 0 0 0.0823529 0 0 0 0 0.32549 0 0 0 0 0.533333 0 0 0 1 0"/>
<feBlend mode="normal" in2="shape" result="effect2_innerShadow_4337_142"/>
<feColorMatrix in="SourceAlpha" type="matrix" values="0 0 0 0 0 0 0 0 0 0 0 0 0 0 0 0 0 0 127 0" result="hardAlpha"/>
<feOffset dy="2"/>
<feComposite in2="hardAlpha" operator="arithmetic" k2="-1" k3="1"/>
<feColorMatrix type="matrix" values="0 0 0 0 0.745098 0 0 0 0 0.890196 0 0 0 0 1 0 0 0 1 0"/>
<feBlend mode="normal" in2="effect2_innerShadow_4337_142" result="effect3_innerShadow_4337_142"/>
</filter>
<linearGradient id="paint0_linear_4337_142" x1="25.5" y1="0" x2="25.5" y2="30" gradientUnits="userSpaceOnUse">
<stop stop-color="#44A2E5"/>
<stop offset="1" stop-color="#2E7EC2"/>
</linearGradient>
</defs>
</svg>
